<?xml version="1.0" encoding="UTF-8"?>
<svg width="60px" height="60px" viewBox="0 0 60 60" version="1.1" xmlns="http://www.w3.org/2000/svg" xmlns:xlink="http://www.w3.org/1999/xlink">
    <!-- Generator: Sketch 43.2 (39069) - http://www.bohemiancoding.com/sketch -->
    <title>Group</title>
    <desc>Created with Sketch.</desc>
    <defs></defs>
    <g id="Page-1" stroke="none" stroke-width="1" fill="none" fill-rule="evenodd">
        <g id="Group" fill-rule="nonzero" fill="#3262FF">
            <g id="MadebyMade-Vector-LineIcons-Nautical-Outline-13">
                <path d="M30,0.735 C13.764,0.735 0.556,13.943 0.556,30.179 C0.556,38.378 3.927,45.801 9.352,51.145 C9.397,51.229 9.441,51.314 9.512,51.385 C9.602,51.475 9.707,51.539 9.816,51.587 C15.091,56.563 22.193,59.623 30,59.623 C46.236,59.623 59.444,46.414 59.444,30.179 C59.444,13.944 46.236,0.735 30,0.735 Z M50.37,48.549 L47.389,45.568 C46.998,45.177 46.365,45.177 45.975,45.568 C45.584,45.959 45.584,46.592 45.975,46.982 L48.974,49.98 C44.303,54.457 38.062,57.304 31.166,57.594 L31.166,53.458 C31.166,52.906 30.718,52.458 30.166,52.458 C29.614,52.458 29.166,52.906 29.166,53.458 L29.166,57.603 C22.469,57.402 16.367,54.794 11.701,50.611 L14.519,47.793 C14.91,47.402 14.91,46.769 14.519,46.379 C14.128,45.988 13.496,45.988 13.105,46.379 L10.263,49.221 C5.597,44.386 2.687,37.85 2.567,30.643 L6.924,30.643 C7.476,30.643 7.924,30.195 7.924,29.643 C7.924,29.091 7.476,28.643 6.924,28.643 L2.6,28.643 C2.975,21.895 5.801,15.794 10.198,11.207 L13.51,14.519 C13.705,14.714 13.961,14.812 14.217,14.812 C14.473,14.812 14.729,14.714 14.924,14.519 C15.315,14.128 15.315,13.496 14.924,13.105 L11.63,9.81 C16.305,5.59 22.435,2.959 29.165,2.757 L29.165,7.44 C29.165,7.992 29.613,8.44 30.165,8.44 C30.717,8.44 31.165,7.992 31.165,7.44 L31.165,2.765 C38.093,3.056 44.362,5.929 49.04,10.443 L45.644,13.839 C45.253,14.23 45.253,14.862 45.644,15.253 C45.839,15.448 46.095,15.546 46.351,15.546 C46.607,15.546 46.863,15.448 47.058,15.253 L50.43,11.881 C54.467,16.384 57.041,22.222 57.398,28.643 L52.834,28.643 C52.282,28.643 51.834,29.091 51.834,29.643 C51.834,30.195 52.282,30.643 52.834,30.643 L57.432,30.643 C57.318,37.519 54.667,43.789 50.37,48.549 Z" id="Shape"></path>
                <path d="M42.214,17.054 L25.689,25.539 C25.503,25.635 25.352,25.786 25.256,25.972 L16.77,42.498 C16.572,42.884 16.646,43.354 16.953,43.662 C17.145,43.854 17.401,43.955 17.661,43.955 C17.816,43.955 17.973,43.919 18.117,43.845 L34.642,35.36 C34.828,35.264 34.979,35.113 35.075,34.927 L43.56,18.4 C43.758,18.014 43.685,17.544 43.377,17.236 C43.071,16.929 42.601,16.856 42.214,17.054 Z M37.7512821,25.334909 L32.6703731,27.9436269 L35.279091,22.8627179 L40.36,20.254 L37.7512821,25.334909 Z" id="Shape" transform="translate(30.165131, 30.449313) rotate(-45.000000) translate(-30.165131, -30.449313) "></path>
            </g>
        </g>
    </g>
</svg>